<?xml version="1.0" encoding="UTF-8"?>
<svg version="1.1" viewBox="0 0 1600 1600" width="1280" height="1280" xmlns="http://www.w3.org/2000/svg">
<path transform="translate(0)" d="m0 0h1600v1600h-1600v-1600z" fill="#FDFDFD"/>
<path transform="translate(307 948)" d="m0 0c1.75-0.00313 3.5-0.00758 5.24-0.0132 4.8-0.0117 9.59-0.0047 14.4 0.00533 5.22 0.00762 10.4-0.00217 15.7-0.00973 9.15-0.0108 18.3-0.0105 27.4-0.00286 13.6 0.0113 27.2 0.00555 40.8-0.00362 22.9-0.0149 45.8-0.0154 68.7-0.00727 1.04 3.73e-4 1.04 3.73e-4 2.11 7.53e-4 0.698 2.49e-4 1.4 4.98e-4 2.11 7.54e-4 21.3 0.00757 42.5 0.00952 63.8 0.00593 1.42-2.32e-4 2.85-4.64e-4 4.27-6.94e-4 5.72-9.31e-4 11.4-0.00189 17.2-0.00288 16-0.00275 32-0.00446 48-0.00536 1.09-6.14e-5 1.09-6.14e-5 2.21-1.24e-4 23.2-0.00123 46.4 0.00215 69.6 0.00867 1.13 3.16e-4 1.13 3.16e-4 2.28 6.39e-4 12.2 0.00343 24.4 0.00709 36.7 0.0108 48.5 0.0146 97 0.0139 145-6.92e-4 12.2-0.00366 24.4-0.0073 36.6-0.0107 0.752-2.11e-4 1.5-4.23e-4 2.28-6.4e-4 23.2-0.00647 46.4-0.00921 69.6-0.00791 1.09 6.11e-5 1.09 6.11e-5 2.21 1.23e-4 16 9.37e-4 32 0.00284 47.9 0.00561 5.72 9.87e-4 11.4 0.00193 17.2 0.00285 1.42 2.32e-4 2.85 4.68e-4 4.27 7.09e-4 21.3 0.00358 42.5 5.34e-4 63.8-0.00705 1.04-3.73e-4 1.04-3.73e-4 2.11-7.53e-4 1.04-3.72e-4 1.04-3.72e-4 2.11-7.52e-4 23.5-0.00828 46.9-0.00522 70.4 0.0106 13.5 0.00881 27 0.00938 40.6-0.00194 9.03-0.00672 18.1-0.00255 27.1 0.0105 5.15 0.00714 10.3 0.00957 15.4-0.00122 4.69-0.00972 9.37-0.00553 14.1 0.00954 1.68 0.00301 3.36 0.00105 5.04-0.00662 16.9-0.0715 31.6 2.21 45.5 12.7 12.5 12.5 19.8 26.9 19.8 44.7 0.00446 0.999 0.00446 0.999 9e-3 2.02 0.00861 2.21 0.0102 4.42 0.0117 6.64 0.00463 1.59 0.00966 3.19 0.015 4.78 0.0131 4.32 0.0196 8.64 0.024 13 0.00294 2.7 0.00705 5.41 0.0115 8.11 0.0137 8.48 0.0233 17 0.0272 25.4 0.00447 9.75 0.022 19.5 0.051 29.3 0.0217 7.56 0.0317 15.1 0.033 22.7 0.00104 4.51 0.00684 9.01 0.0248 13.5 0.0166 4.24 0.0186 8.49 0.00986 12.7-7.64e-4 1.55 0.00348 3.09 0.0135 4.64 0.0916 15.1-1.67 27.7-10.4 40.3-0.677 0.982-0.677 0.982-1.37 1.98-9.29 12-22.1 17.6-36.6 19.6-7.15 0.805-14.3 0.681-21.5 0.659-1.74 0.00209-3.48 0.00506-5.22 0.00881-4.76 0.00776-9.53 0.00314-14.3-0.00356-5.19-0.00509-10.4 0.00145-15.6 0.00649-9.09 0.00722-18.2 0.00701-27.3 0.00191-13.5-0.00757-27-0.0037-40.6 0.00242-22.7 0.00992-45.5 0.0103-68.2 0.00485-0.692-1.66e-4 -1.38-3.31e-4 -2.1-5.02e-4 -0.693-1.66e-4 -1.39-3.32e-4 -2.1-5.03e-4 -21.1-0.00505-42.3-0.00635-63.4-0.00395-1.42 1.55e-4 -2.83 3.09e-4 -4.25 4.63e-4 -5.69 6.21e-4 -11.4 0.00126-17.1 0.00192-15.9 0.00183-31.8 0.00298-47.7 0.00357-1.09 4.09e-5 -1.09 4.09e-5 -2.19 8.27e-5 -23.1 8.18e-4 -46.1-0.00143-69.2-0.00578-0.748-1.4e-4 -1.5-2.81e-4 -2.27-4.26e-4 -12.1-0.00229-24.3-0.00473-36.4-0.00718-48.2-0.00971-96.3-0.00926-145 4.61e-4 -12.1 0.00244-24.3 0.00486-36.4 0.00714-1.12 2.11e-4 -1.12 2.11e-4 -2.27 4.27e-4 -23 0.00431-46.1 0.00614-69.1 0.00527-1.09-4.08e-5 -1.09-4.08e-5 -2.19-8.23e-5 -15.9-6.25e-4 -31.8-0.00189-47.6-0.00374-5.68-6.58e-4 -11.4-0.00128-17-0.0019-1.41-1.55e-4 -2.83-3.12e-4 -4.24-4.72e-4 -21.1-0.00239-42.2-3.57e-4 -63.4 0.0047-0.692 1.66e-4 -1.38 3.31e-4 -2.1 5.02e-4 -1.04 2.48e-4 -1.04 2.48e-4 -2.09 5.01e-4 -23.3 0.00552-46.6 0.00348-69.9-0.00706-13.4-0.00587-26.9-0.00625-40.3 0.00129-8.98 0.00448-18 0.0017-26.9-0.00701-5.11-0.00476-10.2-0.00638-15.3 8.12e-4 -4.66 0.00649-9.31 0.00368-14-0.00636-1.67-2e-3 -3.34-7.08e-4 -5.01 0.00441-21.4 0.061-40.1-2.51-56.2-18.3-11.4-14.1-14.3-28-14.3-45.7-0.00271-1.58-0.00628-3.16-0.0106-4.74-0.00908-4.27-0.0056-8.54 7.58e-4 -12.8 0.00509-4.48 3.61e-4 -8.96-0.00277-13.4-0.00363-7.53 0.00114-15.1 0.0107-22.6 0.0109-8.68 0.00736-17.4-0.00365-26-0.0091-7.47-0.0103-14.9-0.00512-22.4 0.00311-4.45 0.00357-8.91-0.00307-13.4-0.00581-4.19-0.0017-8.38 0.00979-12.6 0.00263-1.53 0.00192-3.06-0.00253-4.59-0.0495-18.8 3.65-34.2 16.3-48.7 15.8-13.7 32-17.5 52.4-17.4z" fill="#000100"/>
<path transform="translate(300 1284)" d="m0 0c1.88 1.32e-4 1.88 1.32e-4 3.8 2.67e-4 0.7-0.00268 1.4-0.00536 2.12-0.00812 2.38-0.00661 4.75 0.00119 7.13 0.00878 1.72-0.00178 3.43-0.00444 5.15-0.0079 4.76-0.00701 9.51-0.00143 14.3 0.00606 5.16 0.00594 10.3 3.49e-4 15.5-0.00382 9.05-0.0057 18.1-0.00392 27.2 0.00269 13.5 0.00979 26.9 0.00819 40.4 0.00425 22.6-0.00629 45.3-0.00311 67.9 0.00559 22.4 0.00861 44.9 0.0135 67.3 0.0133 1.41-7.92e-6 2.81-1.56e-5 4.22-2.32e-5 5.65-3.74e-5 11.3-1.04e-4 17-2.06e-4 15.8-2.78e-4 31.6 1.11e-4 47.4 9.89e-4 0.72 3.97e-5 1.44 7.93e-5 2.18 1.2e-4 22.9 0.00131 45.9 0.00548 68.8 0.0117 0.745 2.03e-4 1.49 4.06e-4 2.26 6.15e-4 12.1 0.00331 24.2 0.0068 36.3 0.0103 48 0.0139 95.9 0.0205 144 0.0198 1.52-2.04e-5 3.03-4.06e-5 4.55-6.06e-5 3.03-4.02e-5 6.06-8.1e-5 9.09-1.22e-4 6.79-9.14e-5 13.6-1.76e-4 20.4-2.47e-4 1.5-1.58e-5 3.01-3.22e-5 4.51-4.93e-5 40.1-4.45e-4 80.3 0.00402 120 0.0104 0.701 1.1e-4 1.4 2.2e-4 2.12 3.34e-4 12.8 0.00201 12.8 0.00201 19 0.00302 15.4 0.0025 30.8 0.00444 46.3 0.00481 0.696 1.75e-5 1.39 3.51e-5 2.11 5.31e-5 2.8 6.92e-5 5.61 1.34e-4 8.41 1.97e-4 26 5.85e-4 52 0.00434 78 0.0145 13.4 0.00513 26.8 0.00752 40.2 6e-3 8.93-7.31e-4 17.9 0.00214 26.8 0.00804 5.1 0.00327 10.2 0.00491 15.3 0.00224 4.63-0.00239 9.25-2.77e-4 13.9 0.00562 1.67 0.00131 3.35 9.08e-4 5.02-0.00132 2.25-0.00276 4.51 5.17e-4 6.76 0.00544 1.88 4.37e-4 1.88 4.37e-4 3.8 8.83e-4 2.77 0.126 2.77 0.126 3.77 1.13 0.0944 2.3 0.117 4.6 0.114 6.91 1.46e-4 0.722 2.92e-4 1.44 4.43e-4 2.19-6.99e-4 2.4-0.00849 4.79-0.0163 7.19-0.00186 1.66-0.00329 3.32-0.00429 4.97-0.00383 4.37-0.0137 8.74-0.0247 13.1-0.0102 4.46-0.0148 8.91-0.0198 13.4-0.0107 8.75-0.0278 17.5-0.0488 26.3-87.5 0.0156-175 0.0309-288 0.0423-1.43 1.39e-4 -2.87 2.79e-4 -4.3 4.18e-4 -30.1 0.00292-60.2 0.00564-90.3 0.00812-15.1 0.00125-30.2 0.00253-45.3 0.00385-2.28 1.99e-4 -4.56 3.97e-4 -6.84 5.95e-4 -35.1 0.00306-70.3 0.00697-105 0.0133-1.13 2.05e-4 -1.13 2.05e-4 -2.29 4.15e-4 -12.2 0.00221-24.4 0.0045-36.6 0.00679-35.1 0.0066-70.2 0.0127-105 0.0153-1.08 8.03e-5 -1.08 8.03e-5 -2.18 1.62e-4 -15.8 0.00117-31.6 0.00206-47.5 0.0027-6.37 2.62e-4 -12.7 5.62e-4 -19.1 8.76e-4 -0.697 3.34e-5 -1.39 6.69e-5 -2.11 1.01e-4 -22.5 0.0011-45 0.00537-67.4 0.0113-23.3 0.00612-46.5 0.00873-69.8 0.00722-13.4-7.64e-4 -26.8 0.00129-40.3 0.0073-8.95 0.00373-17.9 0.00388-26.8 0.00103-5.11-0.00152-10.2-0.0014-15.3 0.00305-4.64 0.00401-9.28 0.00352-13.9-7.43e-4 -1.68-7.21e-4 -3.36 2.77e-4 -5.03 0.0031-2.26 0.00356-4.52 0.00108-6.78-0.00304-1.26 1.56e-4 -2.51 3.12e-4 -3.81 4.73e-4 -2.77-0.125-2.77-0.125-3.77-1.12-0.105-2.23-0.139-4.46-0.145-6.69-0.00504-1.05-0.00504-1.05-0.0102-2.12-0.00954-2.32-0.0115-4.64-0.0125-6.97-0.00321-1.61-0.00657-3.22-0.0101-4.82-6e-3 -3.38-0.00784-6.75-0.00725-10.1 1.02e-4 -4.33-0.0136-8.66-0.0308-13-0.0111-3.32-0.0131-6.64-0.0126-9.97-0.00118-1.6-0.00562-3.2-0.0133-4.79-0.00976-2.23-0.00694-4.46-8.95e-4 -6.69-0.00143-1.27-0.00285-2.54-0.00432-3.85 0.336-4.04 1.1-4.87 5.14-5.22z" fill="#000100"/>
<path transform="translate(1140 239)" d="m0 0c1.27 0.00143 2.54 0.00285 3.85 0.00432 1.05-0.00285 1.05-0.00285 2.12-0.00575 2.32-0.00371 4.64 7e-3 6.97 0.0182 1.61 0.00119 3.22 0.00165 4.83 0.00139 3.37 0.00157 6.75 0.00986 10.1 0.0233 4.33 0.017 8.67 0.0208 13 0.0201 3.32 2.71e-4 6.64 0.00575 9.97 0.013 1.6 0.00319 3.2 0.00516 4.8 0.00589 2.23 0.00216 4.46 0.0109 6.69 0.0216 1.27 0.00381 2.54 0.00762 3.85 0.0116 2.84 0.134 2.84 0.134 3.84 1.13 0.0989 2.57 0.132 5.12 0.123 7.7 0.00115 0.82 0.00231 1.64 0.0035 2.48 0.00267 2.78-0.00186 5.57-0.00629 8.35 4.36e-4 2 0.00131 4 0.00259 6 0.00225 5.53-0.00178 11.1-0.00678 16.6-0.0043 5.95-0.00286 11.9-0.0021 17.9 5.26e-4 10.3-0.00259 20.6-0.00824 31-0.00591 10.8-0.00976 21.7-0.0109 32.5-6.87e-5 0.672-1.37e-4 1.34-2.08e-4 2.04-3.38e-4 3.41-6.4e-4 6.83-9.27e-4 10.2-0.0021 24.2-0.00884 48.4-0.0183 72.6-0.00918 23.5-0.0163 47-0.0205 70.6-1.32e-4 0.724-2.63e-4 1.45-3.99e-4 2.2-0.00132 7.28-0.00259 14.6-0.00384 21.8-0.00254 14.8-0.00536 29.6-0.00835 44.5-2.06e-4 1.02-2.06e-4 1.02-4.16e-4 2.07-0.00921 45.5-0.0251 91.1-0.0419 137-9.63 0.0231-19.3 0.0409-28.9 0.0518-4.47 0.00523-8.94 0.0123-13.4 0.0236-4.31 0.0108-8.62 0.0168-12.9 0.0194-1.65 0.00185-3.3 0.00547-4.95 0.0109-2.3 0.00721-4.6 0.00826-6.9 0.0078-1.31 0.00222-2.62 0.00444-3.98 0.00673-2.93-0.12-2.93-0.12-3.93-1.12-0.101-2.56-0.135-5.1-0.129-7.66-0.00175-0.816-0.00351-1.63-0.00531-2.47-0.0047-2.77-0.00218-5.54 2.34e-4 -8.31-0.00187-1.99-0.00417-3.98-0.00687-5.98-0.00615-5.5-0.00598-11-0.00481-16.5 2.03e-4 -5.92-0.00531-11.8-0.0101-17.8-0.00833-11.6-0.0111-23.2-0.0116-34.8-4.59e-4 -9.43-0.00251-18.9-0.0057-28.3-8.97e-4 -2.71-0.00179-5.42-0.00267-8.13-3.32e-4 -1.01-3.32e-4 -1.01-6.7e-4 -2.04-0.00616-19-0.0101-37.9-0.00966-56.9 1.56e-5 -0.716 3.12e-5 -1.43 4.72e-5 -2.17 8.31e-5 -3.63 1.82e-4 -7.26 2.85e-4 -10.9 1.99e-5 -0.721 3.99e-5 -1.44 6.04e-5 -2.18 4.04e-5 -1.46 8.22e-5 -2.91 1.25e-4 -4.37 6.13e-4 -22.7-0.0069-45.4-0.0206-68-0.0153-25.5-0.024-50.9-0.023-76.4 7.46e-5 -2.71 1.23e-4 -5.42 1.54e-4 -8.14 1.17e-5 -0.668 2.33e-5 -1.34 3.53e-5 -2.02 2.89e-5 -10.1-0.0053-20.2-0.0134-30.3-0.00907-11.5-0.0113-23-0.00449-34.4 0.00328-5.86 0.00327-11.7-0.00535-17.6-0.0078-5.36-0.0065-10.7 0.00228-16.1 0.00155-1.95-3.35e-4 -3.89-0.00586-5.84-0.00698-2.63-0.00183-5.26 0.00656-7.89-0.00497-0.769-0.00994-1.54-0.0151-2.33 0.0496-7.27 0.0496-7.27 5.23-7.7z" fill="#000100"/>
<path transform="translate(393 239)" d="m0 0c1.27 0.00143 2.54 0.00285 3.85 0.00432 1.05-0.00285 1.05-0.00285 2.12-0.00575 2.32-0.00371 4.64 7e-3 6.97 0.0182 1.61 0.00119 3.22 0.00165 4.83 0.00139 3.37 0.00157 6.75 0.00986 10.1 0.0233 4.33 0.017 8.67 0.0208 13 0.0201 3.32 2.71e-4 6.64 0.00575 9.97 0.013 1.6 0.00319 3.2 0.00516 4.8 0.00589 2.23 0.00216 4.46 0.0109 6.69 0.0216 1.27 0.00381 2.54 0.00762 3.85 0.0116 2.84 0.134 2.84 0.134 3.84 1.13 0.0989 2.57 0.132 5.12 0.123 7.7 0.00115 0.82 0.00231 1.64 0.0035 2.48 0.00267 2.78-0.00186 5.57-0.00629 8.35 4.36e-4 2 0.00131 4 0.00259 6 0.00225 5.53-0.00178 11.1-0.00678 16.6-0.0043 5.95-0.00286 11.9-0.0021 17.9 5.26e-4 10.3-0.00259 20.6-0.00824 31-0.00591 10.8-0.00976 21.7-0.0109 32.5-6.87e-5 0.672-1.37e-4 1.34-2.08e-4 2.04-3.38e-4 3.41-6.4e-4 6.83-9.27e-4 10.2-0.0021 24.2-0.00884 48.4-0.0183 72.6-0.00918 23.5-0.0163 47-0.0205 70.6-1.32e-4 0.724-2.63e-4 1.45-3.99e-4 2.2-0.00132 7.28-0.00259 14.6-0.00384 21.8-0.00254 14.8-0.00536 29.6-0.00835 44.5-2.06e-4 1.02-2.06e-4 1.02-4.16e-4 2.07-0.00921 45.5-0.0251 91.1-0.0419 137-9.63 0.0231-19.3 0.0409-28.9 0.0518-4.47 0.00523-8.94 0.0123-13.4 0.0236-4.31 0.0108-8.62 0.0168-12.9 0.0194-1.65 0.00185-3.3 0.00547-4.95 0.0109-2.3 0.00721-4.6 0.00826-6.9 0.0078-1.31 0.00222-2.62 0.00444-3.98 0.00673-2.93-0.12-2.93-0.12-3.93-1.12-0.101-2.56-0.135-5.1-0.129-7.66-0.00175-0.816-0.00351-1.63-0.00531-2.47-0.0047-2.77-0.00218-5.54 2.34e-4 -8.31-0.00187-1.99-0.00417-3.98-0.00687-5.98-0.00615-5.5-0.00598-11-0.00481-16.5 2.03e-4 -5.92-0.00531-11.8-0.0101-17.8-0.00833-11.6-0.0111-23.2-0.0116-34.8-4.59e-4 -9.43-0.00251-18.9-0.0057-28.3-8.97e-4 -2.71-0.00179-5.42-0.00267-8.13-3.32e-4 -1.01-3.32e-4 -1.01-6.7e-4 -2.04-0.00616-19-0.0101-37.9-0.00966-56.9 1.56e-5 -0.716 3.12e-5 -1.43 4.72e-5 -2.17 8.31e-5 -3.63 1.82e-4 -7.26 2.85e-4 -10.9 1.99e-5 -0.721 3.99e-5 -1.44 6.04e-5 -2.18 4.04e-5 -1.46 8.22e-5 -2.91 1.25e-4 -4.37 6.13e-4 -22.7-0.0069-45.4-0.0206-68-0.0153-25.5-0.024-50.9-0.023-76.4 7.46e-5 -2.71 1.23e-4 -5.42 1.54e-4 -8.14 1.17e-5 -0.668 2.33e-5 -1.34 3.53e-5 -2.02 2.89e-5 -10.1-0.0053-20.2-0.0134-30.3-0.00907-11.5-0.0113-23-0.00449-34.4 0.00328-5.86 0.00327-11.7-0.00535-17.6-0.0078-5.36-0.0065-10.7 0.00228-16.1 0.00155-1.95-3.35e-4 -3.89-0.00586-5.84-0.00698-2.63-0.00183-5.26 0.00656-7.89-0.00497-0.769-0.00994-1.54-0.0151-2.33 0.0496-7.27 0.0496-7.27 5.23-7.7z" fill="#000100"/>
<path transform="translate(769 1042)" d="m0 0c0.768 0.00497 1.54 0.00994 2.33 0.0151 0.816-0.00261 1.63-0.00521 2.47-0.0079 2.76-0.00635 5.53 0.00169 8.29 0.00955 1.99-0.00159 3.98-0.00405 5.97-0.00732 5.49-0.00644 11-3.23e-4 16.5 0.00776 5.91 0.00655 11.8 0.00163 17.7-0.00188 10.9-0.00476 21.8-4.83e-4 32.8 0.00825 10.1 0.00801 20.2 0.0119 30.3 0.0117 0.668-7.65e-6 1.34-1.53e-5 2.02-2.32e-5 2.71-4.09e-5 5.42-1.07e-4 8.13-2.06e-4 25.4-9.07e-4 50.9 0.00905 76.3 0.0244 22.6 0.0136 45.3 0.0199 67.9 0.0192 1.45-4.04e-5 2.91-8.08e-5 4.36-1.21e-4 0.718-2.04e-5 1.44-4.07e-5 2.18-6.17e-5 3.62-1.01e-4 7.23-1.91e-4 10.8-2.7e-4 0.713-1.67e-5 1.43-3.34e-5 2.16-5.06e-5 18.9-3.65e-4 37.8 0.00417 56.7 0.0104 0.672 2.2e-4 1.34 4.41e-4 2.03 6.67e-4 2.7 8.88e-4 5.4 0.00178 8.1 0.00269 9.41 0.00316 18.8 0.00467 28.2 0.00511 12.1 5.96e-4 24.3 0.00468 36.4 0.0144 5.85 0.00463 11.7 0.00766 17.6 0.00641 5.35-0.00109 10.7 0.00239 16 0.00965 1.94 0.00182 3.89 0.00193 5.83 2.33e-4 2.62-0.00204 5.25 0.00196 7.87 0.00761 0.77-0.00206 1.54-0.00411 2.33-0.00623 5.2 0.0207 5.2 0.0207 6.31 1.13 0.0944 2.27 0.117 4.54 0.114 6.81 1.46e-4 0.712 2.92e-4 1.42 4.43e-4 2.16-6.99e-4 2.36-0.00849 4.73-0.0163 7.09-0.00186 1.64-0.00329 3.27-0.00429 4.91-0.00383 4.31-0.0137 8.62-0.0247 12.9-0.0102 4.4-0.0148 8.79-0.0198 13.2-0.0107 8.63-0.0278 17.3-0.0488 25.9-46.1 0.0171-92.3 0.033-138 0.0423-0.682 1.38e-4 -1.36 2.76e-4 -2.07 4.18e-4 -14.8 0.00299-29.6 0.00576-44.5 0.0083-7.27 0.00125-14.5 0.00254-21.8 0.00387-1.09 1.96e-4 -1.09 1.96e-4 -2.19 3.96e-4 -23.5 0.00427-46.9 0.0118-70.4 0.021-24.1 0.00942-48.2 0.0156-72.3 0.0176-3.4 2.88e-4 -6.8 6.14e-4 -10.2 9.62e-4 -0.669 6.74e-5 -1.34 1.35e-4 -2.03 2.04e-4 -10.8 0.00118-21.6 0.00583-32.4 0.0118-10.8 0.00587-21.7 0.00806-32.5 0.00667-5.88-6.44e-4 -11.8 3.78e-4 -17.6 0.0057-5.37 0.00483-10.7 0.00513-16.1 0.00169-1.95-4.26e-4 -3.91 8.71e-4 -5.86 0.00398-2.64 0.00396-5.27 0.00188-7.91-0.00184-0.774 0.00263-1.55 0.00525-2.35 0.00796-5.22-0.0169-5.22-0.0169-6.34-1.13-0.105-2.2-0.139-4.4-0.145-6.6-0.00504-1.03-0.00504-1.03-0.0102-2.09-0.00954-2.29-0.0115-4.58-0.0125-6.87-0.00321-1.59-0.00657-3.17-0.0101-4.76-6e-3 -3.33-0.00784-6.66-0.00725-9.98 1.02e-4 -4.27-0.0136-8.54-0.0308-12.8-0.0111-3.28-0.0131-6.55-0.0126-9.83-0.00118-1.58-0.00562-3.15-0.0133-4.73-0.00976-2.2-0.00694-4.4-8.95e-4 -6.6-0.00214-1.88-0.00214-1.88-0.00432-3.8 0.447-5.3 2.97-5.16 7.69-5.19z" fill="#FDFDFD"/>
<path transform="translate(805,306)" d="m0 0c2.11 0.126 2.11 0.126 4.75 0.668 1.48 0.302 1.48 0.302 3 0.611 5.79 1.28 11.6 2.63 17.3 4.03 1.27 0.309 2.55 0.618 3.86 0.937 8.48 2.07 16.9 4.29 25.3 6.69 4.54 1.28 9.1 2.4 13.7 3.48 2.09 0.578 2.09 0.578 3.09 1.58-0.493 7.79-2.36 15.2-4.25 22.7-0.336 1.36-0.672 2.72-1.01 4.07-0.905 3.66-1.82 7.32-2.73 11-0.967 3.88-1.93 7.75-2.89 11.6-2.18 8.78-4.36 17.5-6.55 26.3-0.723 2.9-1.45 5.8-2.17 8.69-3.64 14.6-7.28 29.2-10.9 43.8-2.32 9.24-4.63 18.5-6.93 27.7-1.49 5.98-2.98 12-4.47 17.9-0.164 0.656-0.328 1.31-0.496 1.99-3.93 15.8-7.89 31.5-11.9 47.3-0.18 0.709-0.361 1.42-0.547 2.15-1.63 6.4-3.25 12.8-4.88 19.2-5.59 22-11.1 44-16.4 66-0.255 1.05-0.51 2.1-0.772 3.18-0.473 1.94-0.943 3.89-1.41 5.84-0.309 1.27-0.309 1.27-0.624 2.57-0.266 1.1-0.266 1.1-0.538 2.23-0.499 1.8-0.499 1.8-1.5 3.8-8.1-0.636-15.8-2.5-23.6-4.49-1.4-0.35-2.79-0.7-4.19-1.05-2.91-0.73-5.82-1.47-8.72-2.2-3.73-0.947-7.47-1.88-11.2-2.8-2.88-0.715-5.75-1.44-8.63-2.17-1.38-0.348-2.75-0.691-4.13-1.03-1.92-0.473-3.83-0.964-5.74-1.46-1.09-0.275-2.18-0.549-3.3-0.832-1.21-0.476-1.21-0.476-2.45-0.961-1.14-3.42-0.833-4.52 0.0378-7.95 0.257-1.03 0.513-2.05 0.778-3.11 0.437-1.7 0.437-1.7 0.884-3.42 0.302-1.2 0.604-2.39 0.915-3.63 0.664-2.63 1.33-5.26 2-7.89 1.09-4.26 2.17-8.52 3.24-12.8 1.15-4.57 2.31-9.15 3.47-13.7 2.89-11.4 5.75-22.8 8.59-34.2 0.415-1.66 0.83-3.33 1.24-4.99 0.626-2.51 1.25-5.02 1.88-7.53 5.42-21.7 10.8-43.5 16.4-65.2 0.176-0.692 0.352-1.38 0.534-2.1 1.4-5.49 2.79-11 4.19-16.5 5.67-22.3 11.2-44.5 16.7-66.8 0.579-2.35 1.16-4.71 1.74-7.06 3.32-13.5 6.64-27 9.93-40.4 0.944-3.85 1.89-7.7 2.84-11.6 0.415-1.69 0.828-3.38 1.24-5.07 0.541-2.23 1.09-4.46 1.64-6.68 0.294-1.2 0.588-2.4 0.891-3.64 0.859-2.74 0.859-2.74 2.86-4.74z" fill="#000100"/>
<path transform="translate(659,349)" d="m0 0v2h2c2.62 2.37 2.62 2.37 5 5v2h2c2.49 2.24 4.59 4.15 6.06 7.19 0.805 1.99 0.805 1.99 2.94 2.81 2.53 1.26 2.76 2.53 4 5 1.33 0.683 2.66 1.35 4 2 0.33 0.99 0.66 1.98 1 3h2c2.63 2.38 2.63 2.38 5 5v2h2c1.33 1.36 1.33 1.36 2.81 3.19 1.92 2.34 3.77 4.36 6 6.44 2.35 2.55 2.9 3.97 3.19 7.38-0.447 0.375-0.895 0.75-1.36 1.14-0.605 0.512-1.21 1.02-1.83 1.55-0.592 0.499-1.18 0.998-1.79 1.51-2.44 2.18-4.71 4.48-7.02 6.8l-25 25c-0.897 0.898-1.79 1.8-2.72 2.72-1.52 1.52-3.05 3.03-4.6 4.53-2.31 2.36-4.5 4.77-6.69 7.25-2.9 3.28-5.86 6.44-9 9.5-0.825 0.825-1.65 1.65-2.5 2.5l-7.5 7.5c-0.887 0.928-1.77 1.86-2.69 2.81-2.31 2.19-2.31 2.19-4.31 2.19v4c1.63 1.38 3.29 2.72 5 4v2h2c1.34 1.66 2.67 3.33 4 5 0.908 0.722 1.82 1.44 2.75 2.19 0.743 0.598 1.49 1.2 2.25 1.81v2h2v2c0.639 0.268 1.28 0.536 1.94 0.812 2.06 1.19 2.06 1.19 3.06 4.19h2v2h2v2h2v2h2v2c0.639 0.268 1.28 0.536 1.94 0.812 2.06 1.19 2.06 1.19 3.06 4.19h2v2c0.639 0.268 1.28 0.536 1.94 0.812 2.06 1.19 2.06 1.19 3.06 4.19h2v2c0.619 0.247 1.24 0.495 1.88 0.75 2.53 1.49 2.84 2.69 4.12 5.25 1.33 0.683 2.66 1.35 4 2 0.33 0.99 0.66 1.98 1 3h2c1.55 1.57 1.55 1.57 3.31 3.69 2.77 3.26 5.62 6.33 8.69 9.31 2.67 2.61 4.93 4.89 7 8-0.239 2.55-0.807 3.77-2.44 5.75-1.56 1.25-1.56 1.25-3.56 1.25-0.241 0.579-0.482 1.16-0.73 1.75-1.51 2.67-3.24 4.2-5.58 6.18-3.39 2.89-6.55 5.9-9.69 9.06-1.44 1.43-2.88 2.87-4.33 4.3-2.21 2.2-4.42 4.39-6.62 6.59-1.16 1.16-2.33 2.32-3.49 3.47-1.69 1.68-3.38 3.36-5.07 5.05-0.521 0.516-1.04 1.03-1.58 1.56-2.25 2.25-4.13 4.36-5.91 7.02-6.15-0.703-9.98-4.53-14-9v-2h-2v-2c-0.866-0.371-0.866-0.371-1.75-0.75-2.58-1.43-4.31-3.03-6.25-5.25v-2h-2v-2h-2v-2h-2v-2h-2v-2h-2v-2h-2v-2h-2c-1.35-1.65-2.69-3.32-4-5-0.66-0.33-1.32-0.66-2-1v-2h-2v-2h-2v-2h-2v-2h-2v-2h-2v-2h-2v-2h-2v-2h-2v-2h-2v-2h-2v-2h-2v-2h-2v-2h-2v-2h-2v-2h-2v-2h-2v-2h-2c-1.71-1.62-3.37-3.29-5-5-0.598-0.557-1.2-1.11-1.81-1.69-1.19-1.31-1.19-1.31-1.19-3.31h-2v-2h-2v-2h-2v-2h-2v-2h-2v-2c-0.866-0.371-0.866-0.371-1.75-0.75-2.58-1.43-4.31-3.03-6.25-5.25v-2h-2v-2c-0.587-0.235-1.17-0.469-1.78-0.711-5.69-3.3-9.75-11-11.7-17.2-2.48-10.4-1.23-19.2 3.89-28.7 1.44-2.24 2.96-4.33 4.61-6.42 0.498-0.637 0.995-1.27 1.51-1.93 3.17-3.87 6.61-6.93 10.5-10.1 2.97-2.81 5.66-5.77 8.31-8.88 2.99-3.47 6.23-6.39 9.72-9.34 2.65-2.4 4.88-5.08 7.18-7.81 2.42-2.68 5.13-4.93 7.88-7.26 1.82-1.64 3.35-3.32 4.9-5.21 2.64-3.2 5.56-5.79 8.72-8.48 4.64-4.12 8.93-8.61 13.3-13 0.866-0.856 1.73-1.71 2.62-2.59 2.01-2.03 3.86-4.09 5.69-6.28 3.04-3.52 6.31-6.53 9.84-9.54 3.64-3.12 6.83-6.54 9.91-10.2 6.12-7.15 6.12-7.15 11.9-5.38z" fill="#000100"/>
<path transform="translate(943,347)" d="m0 0c3.84 1.57 6.16 4.02 9 7 0.825 0.804 1.65 1.61 2.5 2.44 2.5 2.56 2.5 2.56 4.88 5.5 2.36 2.91 5.06 5.18 7.94 7.56 2.52 2.24 4.53 4.91 6.69 7.5 1.11 0.979 2.23 1.94 3.38 2.88 3.4 2.81 6.15 5.96 9 9.31 2 2.23 4.28 3.96 6.62 5.81 1.19 1.45 2.38 2.9 3.55 4.36 1.7 1.92 3.56 3.54 5.52 5.2 3.05 2.6 5.5 5.24 7.94 8.44 1.64 1.69 3.31 3.35 5 5 0.561 0.571 1.12 1.14 1.7 1.73 3.29 3.34 6.62 6.36 10.3 9.27 2.8 2.66 5.36 5.41 7.81 8.38 2.16 2.57 4.41 4.73 7 6.88 9.11 7.82 16 17.2 19 28.9 0.0619 0.949 0.124 1.9 0.188 2.88 0.0503 0.663 0.101 1.33 0.152 2.01 0.602 13.8-6.33 23.2-15.2 33.1-1.99 1.91-1.99 1.91-3.99 1.91-0.33 0.99-0.66 1.98-1 3h-2c-0.33 0.99-0.66 1.98-1 3-1.67 1.65-1.67 1.65-3.75 3.38-4.26 3.62-8.16 7.32-11.8 11.6-2.37 2.85-4.85 5.42-7.5 8l-5 5c-0.825 0.846-1.65 1.69-2.5 2.56-2.39 2.33-4.89 4.35-7.5 6.44-3.63 3.44-6.91 7.14-10.2 10.9-3.63 4.06-7.57 7.76-11.6 11.4-4.58 4.16-8.96 8.26-12.9 13.1-2.2 2.5-4.75 4.58-7.28 6.73-6.33 5.28-6.33 5.28-11.1 11.8-3.85 0.359-5.58 0.275-8.88-1.88-0.701-0.701-1.4-1.4-2.12-2.12v-2h-2v-2h-2v-2h-2v-2h-2v-2h-2v-2h-2v-2h-2v-2h-2v-2h-2v-2h-2v-2h-2v-2c-0.619-0.247-1.24-0.495-1.88-0.75-2.48-1.46-3.08-2.63-4.12-5.25h-2v-2h-2v-2h-2v-2h-2v-2h-2v-2h-2v-2h-2c-1.62-2.5-1.62-2.5-3-5 3.67-4.5 7.43-8.35 11.9-12.1 3.9-3.44 7.5-7.19 11.1-10.9 0.908-0.887 1.82-1.77 2.75-2.69 2.34-2.33 2.34-2.33 4.56-5.19 1.89-2.31 3.88-4.21 6.16-6.12 5.51-4.77 10.6-9.95 15.7-15.1 0.981-0.986 1.96-1.97 2.94-2.96 1.8-1.81 3.61-3.63 5.41-5.44 7.17-7.22 7.17-7.22 9.44-9.25 3.27-2.97 4.85-4.61 6.02-8.98 0.171-3.26 0.171-3.26-1-6.25h-2v-2c-0.866-0.371-0.866-0.371-1.75-0.75-2.58-1.43-4.31-3.03-6.25-5.25v-2h-2v-2c-0.536-0.206-1.07-0.413-1.62-0.625-3.29-1.91-5.97-4.42-8.38-7.38v-2h-2v-2h-2c-1.35-1.65-2.69-3.32-4-5-0.99-0.495-0.99-0.495-2-1v-2c-0.866-0.371-0.866-0.371-1.75-0.75-2.58-1.43-4.31-3.03-6.25-5.25v-2h-2v-2h-2v-2c-0.866-0.371-0.866-0.371-1.75-0.75-2.58-1.43-4.31-3.03-6.25-5.25v-2c-0.557-0.227-1.11-0.454-1.69-0.688-4-2.27-6.85-4.93-8.31-9.31h-2c-1.33-1.36-1.33-1.36-2.81-3.19-2.58-3.12-5.28-5.99-8.19-8.81 4.83-5.81 10-11.2 15.4-16.5 0.89-0.888 1.78-1.78 2.7-2.69 2.35-2.34 4.7-4.69 7.05-7.03 2.39-2.38 4.77-4.75 7.15-7.13 3.49-3.49 6.99-6.97 10.5-10.5 3.08-3.07 6.16-6.14 9.24-9.22z" fill="#000100"/>
<path transform="translate(1068 799)" d="m0 0c0.853 0.00514 1.71 0.0103 2.59 0.0156 0.903-0.00241 1.81-0.00483 2.74-0.00732 3.05-0.00566 6.09 0.00305 9.14 0.0116 2.18-0.00107 4.35-0.00301 6.53-0.00575 5.92-0.00486 11.8 0.00282 17.8 0.013 6.19 0.00876 12.4 0.00702 18.6 0.00664 10.4 9.38e-4 20.8 0.00963 31.2 0.0233 10.7 0.014 21.4 0.0212 32.1 0.0205 12.9-7.85e-4 25.8 0.00329 38.6 0.0125 4.93 0.00354 9.85 0.00536 14.8 0.00589 5.79 1e-3 11.6 0.00708 17.4 0.0172 2.13 0.00293 4.27 0.00415 6.4 0.00357 2.9-4.87e-4 5.8 0.00513 8.7 0.0124 1.28-0.00232 1.28-0.00232 2.59-0.00469 5.79 0.0242 5.79 0.0242 6.9 1.14 1.63 12.7 1.15 25.7 1.13 38.4-0.00541 3.64-3.19e-6 7.28 0.00635 10.9-6.6e-4 2.33-0.00194 4.65-0.00391 6.98 0.00202 1.08 0.00405 2.16 0.00613 3.28-0.00473 1.52-0.00473 1.52-0.00955 3.07-7.96e-4 0.883-0.00159 1.77-0.00241 2.68-0.142 2.94-0.625 5.74-1.13 8.63-28.5 0.0467-56.9 0.082-85.4 0.104-13.2 0.0103-26.4 0.0244-39.7 0.0473-11.5 0.0199-23 0.0328-34.6 0.0373-6.1 0.00261-12.2 0.00876-18.3 0.0233-5.74 0.0136-11.5 0.0178-17.2 0.0148-2.11 5.51e-4 -4.22 0.00454-6.33 0.0122-2.88 0.00993-5.75 0.00757-8.63 0.0021-0.838 0.00583-1.68 0.0117-2.54 0.0177-4.25-0.0219-7.5-0.292-11.4-2.26-0.0463-9.22-0.0818-18.4-0.104-27.7-0.0105-4.28-0.0246-8.56-0.0473-12.8-0.0217-4.13-0.0337-8.26-0.0389-12.4-0.0037-1.58-0.0109-3.16-0.0217-4.73-0.0145-2.21-0.0165-4.41-0.0156-6.62-0.00444-1.26-0.00888-2.51-0.0135-3.81 0.457-5.58 3.38-5.17 8.28-5.2z" fill="#000100"/>
<path transform="translate(325 799)" d="m0 0c0.904-0.00327 1.81-0.00654 2.74-0.00991 3.04-0.00731 6.08 0.0069 9.13 0.021 2.18-7.9e-4 4.35-0.00289 6.53-0.0062 5.92-0.00514 11.8 0.00842 17.8 0.0255 6.18 0.015 12.4 0.0139 18.5 0.0147 10.4 0.0037 20.8 0.0187 31.1 0.0412 13.3 0.0289 26.7 0.0392 40 0.0437 11.5 0.00397 22.9 0.0165 34.4 0.0303 3.69 0.00411 7.38 0.00703 11.1 0.0098 5.79 0.00488 11.6 0.0151 17.4 0.0294 2.13 0.00454 4.26 0.00737 6.39 0.00841 2.9 0.00174 5.79 0.00959 8.69 0.0191 0.855-8.66e-4 1.71-0.00173 2.59-0.00263 5.79 0.0289 5.79 0.0289 6.9 1.14 0.0944 2.27 0.117 4.54 0.114 6.81 1.46e-4 0.712 2.92e-4 1.42 4.43e-4 2.16-6.99e-4 2.36-0.00849 4.73-0.0163 7.09-0.00186 1.64-0.00329 3.27-0.00429 4.91-0.00383 4.31-0.0137 8.62-0.0247 12.9-0.0102 4.4-0.0148 8.79-0.0198 13.2-0.0107 8.63-0.0278 17.3-0.0488 25.9-3.86 1.29-7.5 1.14-11.5 1.13-1.32 0.0034-1.32 0.0034-2.67 0.00687-2.96 0.00635-5.93 0.00551-8.89 0.00469-2.12 0.00299-4.24 0.00639-6.36 0.0102-5.77 0.00885-11.5 0.0112-17.3 0.0118-4.81 9.48e-4 -9.62 0.00463-14.4 0.00817-11.3 0.00815-22.7 0.0106-34 0.00987-11.7-6.01e-4 -23.4 0.00995-35.2 0.0257-10.1 0.0131-20.1 0.0184-30.2 0.0178-6.01-2.55e-4 -12 0.00261-18 0.0132-5.65 0.00966-11.3 0.00977-16.9 0.00248-2.07-0.00105-4.15 0.00133-6.22 0.00736-2.83 0.00769-5.66 0.00309-8.49-0.00463-1.24 0.00772-1.24 0.00772-2.5 0.0156-4.2-0.0254-7.51-0.358-11.3-2.26-0.146-6.43-0.288-12.9-0.427-19.3-0.0476-2.18-0.0961-4.36-0.146-6.53-0.143-6.34-0.27-12.7-0.373-19-0.0365-2.12-0.0779-4.25-0.124-6.37-0.0645-3.06-0.109-6.12-0.149-9.19-0.0232-0.926-0.0465-1.85-0.0704-2.81-0.0106-1.28-0.0106-1.28-0.0214-2.58-0.0125-0.744-0.0251-1.49-0.038-2.26 1.11-6.22 7.03-5.37 12.1-5.32z" fill="#000100"/>
<path transform="translate(355 1042)" d="m0 0c1.2 8.17e-4 1.2 8.17e-4 2.43 0.00165 0.918-0.00419 1.84-0.00839 2.78-0.0127 1.52 0.00843 1.52 0.00843 3.06 0.017 1.59-0.00285 1.59-0.00285 3.22-0.00575 3.52-0.00372 7.05 0.00701 10.6 0.0182 2.44 0.00119 4.88 0.00165 7.32 0.00139 5.12 0.00157 10.2 0.00987 15.3 0.0233 6.57 0.017 13.1 0.0208 19.7 0.0201 5.04 2.71e-4 10.1 0.00575 15.1 0.013 2.42 0.00319 4.85 0.00516 7.27 0.00589 3.38 0.00216 6.76 0.0109 10.1 0.0216 1.52-6.8e-4 1.52-6.8e-4 3.07-0.00137 0.916 0.00426 1.83 0.00853 2.77 0.0129 1.2 0.00251 1.2 0.00251 2.43 0.00508 1.82 0.129 1.82 0.129 2.82 1.13 0.0944 2.27 0.117 4.54 0.114 6.81 1.46e-4 0.712 2.92e-4 1.42 4.43e-4 2.16-6.99e-4 2.36-0.00849 4.73-0.0163 7.09-0.00186 1.64-0.00329 3.27-0.00429 4.91-0.00383 4.31-0.0137 8.62-0.0247 12.9-0.0102 4.4-0.0148 8.79-0.0198 13.2-0.0107 8.63-0.0278 17.3-0.0488 25.9-14.5 0.0233-28.9 0.0409-43.4 0.0518-6.71 0.00516-13.4 0.0122-20.1 0.0236-6.47 0.0108-12.9 0.0168-19.4 0.0194-2.47 0.00185-4.95 0.00548-7.42 0.0109-3.45 0.00721-6.91 0.00826-10.4 0.0078-1.03 0.0036-2.07 0.00719-3.13 0.0109-0.935-0.00137-1.87-0.00275-2.83-0.00417-0.818 9.22e-4 -1.64 0.00184-2.48 0.00279-1.86-0.123-1.86-0.123-2.86-1.12-0.105-2.2-0.139-4.4-0.145-6.6-0.00504-1.03-0.00504-1.03-0.0102-2.09-0.00954-2.29-0.0115-4.58-0.0125-6.87-0.00321-1.59-0.00657-3.17-0.0101-4.76-6e-3 -3.33-0.00784-6.66-0.00725-9.98 1.02e-4 -4.27-0.0136-8.54-0.0308-12.8-0.0111-3.28-0.0131-6.55-0.0126-9.83-0.00118-1.58-0.00562-3.15-0.0133-4.73-0.00976-2.2-0.00694-4.4-8.95e-4 -6.6-0.00214-1.88-0.00214-1.88-0.00432-3.8 0.279-3.3 0.722-4.73 4.19-5.18z" fill="#FDFDFD"/>
<path transform="translate(542 1042)" d="m0 0c0.793 5.45e-4 1.59 0.00109 2.4 0.00165 0.91-0.00419 1.82-0.00839 2.76-0.0127 1 0.00562 2 0.0112 3.03 0.017 1.58-0.00285 1.58-0.00285 3.19-0.00575 3.49-0.00372 6.98 0.00701 10.5 0.0182 2.42 0.00119 4.83 0.00165 7.25 0.00139 5.07 0.00157 10.1 0.00987 15.2 0.0233 6.51 0.017 13 0.0208 19.5 0.0201 4.99 2.71e-4 9.98 0.00575 15 0.013 2.4 0.00319 4.8 0.00516 7.21 0.00589 3.35 0.00216 6.7 0.0109 10 0.0216 1-4.53e-4 2.01-9.06e-4 3.04-0.00137 1.36 0.0064 1.36 0.0064 2.75 0.0129 0.793 0.00168 1.59 0.00335 2.4 0.00508 1.8 0.129 1.8 0.129 2.8 1.13 1.19 8.53 1.15 17.2 1.13 25.8 9.57e-4 1.26 0.00191 2.53 0.0029 3.83 8.47e-4 3.32-0.00313 6.64-0.00876 9.95-0.00262 2.72 0.00222 5.44 0.00699 8.15 0.00447 3.25 0.00135 6.5-0.00113 9.75 0.00202 1.22 0.00405 2.43 0.00613 3.68-0.00473 1.68-0.00473 1.68-0.00955 3.4-7.96e-4 0.988-0.00159 1.98-0.00241 2.99-0.127 2.48-0.127 2.48-1.13 5.48-14.3 0.0233-28.6 0.0409-43 0.0518-6.65 0.00523-13.3 0.0123-20 0.0236-6.41 0.0108-12.8 0.0168-19.2 0.0194-2.45 0.00185-4.91 0.00548-7.36 0.0109-3.42 0.00721-6.84 0.00826-10.3 0.0078-1.54 0.00539-1.54 0.00539-3.11 0.0109-0.927-0.00137-1.85-0.00275-2.81-0.00417-0.81 9.22e-4 -1.62 0.00184-2.46 0.00279-1.84-0.123-1.84-0.123-2.84-1.12-0.105-2.2-0.139-4.4-0.145-6.6-0.00504-1.03-0.00504-1.03-0.0102-2.09-0.00954-2.29-0.0115-4.58-0.0125-6.87-0.00321-1.59-0.00657-3.17-0.0101-4.76-6e-3 -3.33-0.00784-6.66-0.00725-9.98 1.02e-4 -4.27-0.0136-8.54-0.0308-12.8-0.0111-3.28-0.0131-6.55-0.0126-9.83-0.00118-1.58-0.00562-3.15-0.0133-4.73-0.00976-2.2-0.00694-4.4-8.95e-4 -6.6-0.00214-1.88-0.00214-1.88-0.00432-3.8 0.278-3.29 0.715-4.73 4.18-5.18z" fill="#FDFDFD"/>
</svg>
